<svg width="59" height="40" viewBox="0 0 59 40" fill="none" xmlns="http://www.w3.org/2000/svg">
<path fill-rule="evenodd" clip-rule="evenodd" d="M53.8266 25.6135C55.3176 25.7304 56.6693 26.4652 57.5824 27.6735C58.5807 28.9943 58.8938 30.6654 58.4418 32.258L57.7279 34.7736C56.8735 37.784 54.0912 39.8866 50.9618 39.8866H27.7591C24.6297 39.8866 21.8475 37.784 20.993 34.7736L20.2792 32.258C19.8272 30.6654 20.1404 28.9944 21.1385 27.6735C22.1365 26.3527 23.6587 25.5951 25.3143 25.5951H26.6497V7.97297L22.9969 5.32657L8.69732 3.49164L4.67945 14.9707L13.976 17.5424C14.466 17.678 14.8675 18.0299 15.066 18.498C15.2647 18.9662 15.2385 19.4994 14.9953 19.9459L11.9837 25.4756C10.9285 27.4131 8.87265 28.5898 6.71932 28.5898C6.31385 28.5898 5.90505 28.548 5.49865 28.4619C2.71838 27.8722 0.727717 25.3814 0.765451 22.5395L0.851184 16.083C0.853184 15.9036 0.884251 15.724 0.944651 15.5514L5.99718 1.11617C6.25732 0.373106 7.00238 -0.0864938 7.78238 0.0136396L23.8428 2.07457C24.1194 2.11004 24.3828 2.21444 24.6085 2.37804L31.044 7.04044H41.3832C42.1987 7.04044 42.8942 7.63031 43.0275 8.43484L43.9691 14.1228L52.6484 16.7828C53.3487 16.9974 53.8266 17.6439 53.8266 18.3763V25.6135ZM9.05652 23.8814L11.064 20.1954L4.15572 18.2843L4.09865 22.5838C4.08198 23.8398 4.96158 24.9404 6.19038 25.2011C7.32372 25.4416 8.50238 24.8988 9.05652 23.8814ZM50.4933 25.5951H44.16V17.6678L50.4933 19.6088V25.5951ZM34.1399 17.1879V10.3736H29.9831V18.5199L34.1399 17.1879ZM29.9832 22.0203L36.3151 19.9912C37.0051 19.7702 37.4732 19.1286 37.4732 18.404V10.3736H39.9697L40.8268 15.5507V25.5951H29.9832V22.0203ZM54.521 33.8636L55.2351 31.348C55.3992 30.7696 55.2854 30.1628 54.9229 29.6832C54.5604 29.2035 54.0077 28.9284 53.4065 28.9284H25.3141C24.7129 28.9284 24.1603 29.2036 23.7977 29.6832C23.4353 30.1628 23.3216 30.7696 23.4857 31.348L24.1996 33.8636C24.6491 35.4472 26.1127 36.5532 27.7589 36.5532H50.9617C52.608 36.5532 54.0716 35.4472 54.521 33.8636Z" fill="black"/>
</svg>
