<svg width="120" height="22" viewBox="0 0 120 22" fill="none" xmlns="http://www.w3.org/2000/svg">
<g clip-path="url(#clip0_11_2297)">
<path d="M84.6128 10.7886C85.3279 10.7886 85.9254 10.6977 86.4055 10.5159C86.8959 10.325 87.2891 10.0614 87.5854 9.72504C87.8918 9.37959 88.1115 8.97052 88.2442 8.4978C88.377 8.02509 88.4434 7.50693 88.4434 6.94331C88.4434 6.55242 88.3822 6.19334 88.2596 5.86608C88.1472 5.53882 87.9684 5.25701 87.7233 5.02065C87.4781 4.78429 87.1666 4.60248 86.7886 4.47521C86.4209 4.33885 85.9816 4.27067 85.4709 4.27067H83.1112L82.2072 10.7886H84.6128ZM85.9612 0.957153C87.2891 0.957153 88.423 1.1026 89.3628 1.3935C90.3128 1.67531 91.0891 2.07075 91.6918 2.57982C92.3047 3.07981 92.7542 3.67524 93.0402 4.36613C93.3262 5.04792 93.4692 5.78426 93.4692 6.57514C93.4692 7.65692 93.2803 8.66143 92.9023 9.58868C92.5346 10.5068 91.9676 11.3023 91.2015 11.975C90.4354 12.6477 89.4649 13.1749 88.2902 13.5567C87.1155 13.9385 85.7262 14.1294 84.1225 14.1294H81.7475L80.9331 19.9629C80.8641 20.457 80.4416 20.8247 79.9427 20.8247H76.995C76.3886 20.8247 75.9218 20.2894 76.0042 19.6887L78.4571 1.82115C78.5251 1.32606 78.9481 0.957153 79.4478 0.957153H85.9612Z" fill="black"/>
<path d="M99.7146 9.60231C100.103 8.99324 100.516 8.47053 100.956 8.03418C101.395 7.59783 101.844 7.26148 102.304 7.02513C102.774 6.77968 103.249 6.64332 103.729 6.61605C104.219 6.57969 104.71 6.6615 105.2 6.8615L104.342 10.775C103.76 10.5568 103.213 10.4568 102.703 10.475C102.202 10.4932 101.737 10.6477 101.308 10.9386C100.889 11.2295 100.506 11.6659 100.159 12.2477C99.8219 12.8295 99.5307 13.5749 99.2856 14.484L98.5447 19.9588C98.4776 20.4547 98.0542 20.8247 97.5537 20.8247H94.9153C94.3092 20.8247 93.8425 20.2899 93.9245 19.6894L95.582 7.54895C95.6497 7.05354 96.0728 6.68423 96.5729 6.68423H98.1517C98.642 6.68423 99.0251 6.78877 99.3009 6.99786C99.5767 7.19785 99.7146 7.52966 99.7146 7.99328V9.60231Z" fill="black"/>
<path d="M111.848 17.9066C112.38 17.9066 112.855 17.7657 113.273 17.4839C113.692 17.193 114.045 16.8021 114.331 16.3112C114.627 15.8112 114.852 15.2339 115.005 14.5794C115.168 13.9158 115.25 13.2113 115.25 12.4658C115.25 11.4386 115.092 10.7068 114.775 10.2705C114.469 9.82503 113.963 9.60231 113.258 9.60231C112.727 9.60231 112.252 9.74776 111.833 10.0387C111.414 10.3205 111.057 10.7068 110.761 11.1977C110.474 11.6886 110.25 12.2659 110.086 12.9295C109.933 13.5931 109.856 14.2976 109.856 15.043C109.856 16.0521 110.01 16.7839 110.316 17.2384C110.633 17.6839 111.144 17.9066 111.848 17.9066ZM111.419 21.0428C110.531 21.0428 109.698 20.911 108.922 20.6474C108.156 20.3838 107.487 20.002 106.915 19.502C106.353 18.9929 105.908 18.3702 105.581 17.6339C105.265 16.8884 105.106 16.0339 105.106 15.0703C105.106 13.8158 105.336 12.6658 105.796 11.6204C106.266 10.5659 106.894 9.65686 107.681 8.89324C108.467 8.12963 109.376 7.5342 110.408 7.10694C111.45 6.67968 112.543 6.46605 113.687 6.46605C114.576 6.46605 115.403 6.59787 116.169 6.8615C116.935 7.12512 117.599 7.51147 118.161 8.02055C118.733 8.52053 119.183 9.14324 119.51 9.88866C119.837 10.625 120 11.475 120 12.4386C120 13.6749 119.765 14.8203 119.295 15.8748C118.835 16.9202 118.212 17.8293 117.426 18.602C116.639 19.3656 115.725 19.9656 114.683 20.4019C113.651 20.8292 112.563 21.0428 111.419 21.0428Z" fill="black"/>
<path d="M13.999 13.6036C13.8173 13.2839 13.5786 12.9925 13.292 12.7405C13.1831 12.6428 13.0669 12.5519 12.9441 12.4683C13.4831 12.2419 13.9924 11.9636 14.4629 11.6384C15.0704 11.2194 15.6005 10.7188 16.034 10.1545C16.461 9.58942 16.7902 8.97062 17.0103 8.31882C17.2351 7.63294 17.3473 6.92187 17.3432 6.20757C17.3496 5.49772 17.2023 4.79338 16.9093 4.13284C16.609 3.47404 16.1265 2.89296 15.5065 2.44318C14.7893 1.93773 13.965 1.56521 13.0825 1.34772C11.9426 1.06918 10.7632 0.938361 9.58112 0.959327H2.99361C2.90968 0.959602 2.82876 0.987085 2.76607 1.0366C2.70338 1.08612 2.66322 1.15427 2.65319 1.22821L0.000987167 20.4817C-0.00260174 20.5239 0.00361948 20.5663 0.0192527 20.6062C0.0348859 20.6462 0.0595887 20.6829 0.0918581 20.714C0.124128 20.7451 0.163272 20.77 0.20684 20.7872C0.250408 20.8043 0.29745 20.8134 0.34511 20.8137H5.17072C5.25465 20.8134 5.33557 20.7859 5.39827 20.7364C5.46096 20.6869 5.50111 20.6188 5.51115 20.5448L6.47251 13.6467H7.25436C7.46767 13.6303 7.68185 13.6683 7.8716 13.7563C8.0116 13.8506 8.12017 13.9768 8.18581 14.1214L10.5425 19.8311C10.6926 20.1463 10.9555 20.4088 11.2906 20.578C11.6557 20.7597 12.0693 20.8503 12.4877 20.8403H16.8681C16.925 20.8399 16.9809 20.8274 17.031 20.8036C17.0812 20.7799 17.1242 20.7458 17.1562 20.7042C17.1861 20.6614 17.2047 20.6132 17.2105 20.5632C17.2163 20.5132 17.2093 20.4626 17.1898 20.4153L13.999 13.6036ZM12.3044 8.29227C12.164 8.74192 11.9165 9.15962 11.5787 9.51719C11.2198 9.88252 10.7721 10.1708 10.2694 10.3604C9.66297 10.5789 9.01221 10.684 8.35787 10.6691H6.58475C6.536 10.6689 6.48784 10.6597 6.44337 10.642C6.39891 10.6242 6.35916 10.5984 6.32666 10.5662C6.29774 10.5325 6.27686 10.4939 6.26529 10.4528C6.25371 10.4117 6.25166 10.369 6.2593 10.3272L7.07851 4.44156C7.08931 4.36789 7.12969 4.30016 7.19221 4.25077C7.25474 4.20138 7.33523 4.17365 7.41894 4.17267H9.14717C9.64174 4.1662 10.1343 4.23009 10.6061 4.36189C11.0044 4.47562 11.3714 4.66221 11.6834 4.90962C11.9785 5.14966 12.2021 5.45071 12.3343 5.78599C12.47 6.13507 12.5371 6.50225 12.5326 6.87149C12.5297 7.35099 12.4529 7.82789 12.3044 8.28895V8.29227Z" fill="black"/>
<path d="M23.0405 21.0426C22.3793 21.0494 21.7252 20.9211 21.129 20.6675C20.5479 20.4133 20.0496 20.0317 19.6813 19.5587C19.2787 19.0302 19.0036 18.4334 18.8733 17.806C18.7148 17.0389 18.6984 16.2541 18.8246 15.4823L19.9843 6.78501C19.9943 6.71018 20.0349 6.6412 20.0982 6.59106C20.1616 6.54092 20.2435 6.51308 20.3284 6.5128H24.9633C25.0612 6.51579 25.1538 6.55274 25.2214 6.61571C25.2529 6.64837 25.2765 6.68645 25.2907 6.72758C25.3048 6.76871 25.3093 6.812 25.3037 6.85472L24.1403 15.5553C24.0972 15.8491 24.0809 16.1455 24.0917 16.4416C24.0926 16.611 24.1333 16.7784 24.2114 16.9329C24.2529 17.017 24.3255 17.0861 24.4171 17.1288C24.6227 17.186 24.8397 17.2032 25.0534 17.1791C25.2671 17.1551 25.4724 17.0903 25.6553 16.9894C25.9925 16.8226 26.298 16.6097 26.5606 16.3587C26.8839 16.0492 27.1651 15.7072 27.3985 15.3395C27.6654 14.9193 27.8787 14.4739 28.0344 14.0117L29.0295 6.77837C29.0403 6.7047 29.0807 6.63697 29.1432 6.58758C29.2057 6.53819 29.2862 6.51046 29.3699 6.50948H33.9898C34.0877 6.51247 34.1803 6.54942 34.2479 6.61239C34.2805 6.64517 34.3051 6.68368 34.32 6.72543C34.3348 6.76718 34.3395 6.81123 34.3339 6.85472L32.4635 20.5646C32.4527 20.6388 32.4117 20.707 32.3484 20.7564C32.2851 20.8059 32.2037 20.8333 32.1194 20.8334H29.7664C28.4871 20.8334 27.7838 20.2459 27.7838 19.1737V19.1172C27.2336 19.6359 26.5933 20.073 25.8872 20.4119C25.0114 20.8271 24.0335 21.0438 23.0405 21.0426V21.0426Z" fill="black"/>
<path d="M47.5388 13.8393C47.4116 13.5932 47.264 13.3557 47.0974 13.1289C47.0173 13.0186 46.9272 12.9142 46.828 12.8168C47.2508 12.5554 47.6287 12.2413 47.9503 11.884L52.2709 7.00758C52.312 6.96265 52.3379 6.90827 52.3456 6.85078C52.3532 6.79329 52.3422 6.73506 52.314 6.68288C52.2858 6.63069 52.2414 6.5867 52.1861 6.55603C52.1308 6.52536 52.0668 6.50927 52.0016 6.50964H47.8605C47.5144 6.5013 47.1718 6.57218 46.8655 6.71546C46.5763 6.86452 46.3222 7.06178 46.1173 7.29638L42.9451 11.1404C42.8405 11.26 42.714 11.3633 42.571 11.4458C42.4546 11.4962 42.3264 11.5212 42.197 11.5189L43.6933 1.38422C43.698 1.34211 43.6927 1.2996 43.6777 1.25942C43.6627 1.21925 43.6384 1.18232 43.6063 1.15103C43.5742 1.11973 43.5351 1.09477 43.4914 1.07775C43.4478 1.06074 43.4006 1.05206 43.3529 1.05226H38.7929C38.7087 1.05181 38.6274 1.07904 38.5645 1.1287C38.5016 1.17835 38.4617 1.24691 38.4525 1.32115L35.7105 20.4983C35.7063 20.5403 35.7121 20.5826 35.7273 20.6226C35.7425 20.6625 35.7668 20.6993 35.7988 20.7304C35.8307 20.7616 35.8697 20.7866 35.9131 20.8038C35.9565 20.821 36.0034 20.83 36.0509 20.8303H40.6109C40.695 20.8307 40.7764 20.8035 40.8393 20.7538C40.9021 20.7042 40.942 20.6356 40.9513 20.5614L41.7518 14.7621H41.9201C42.065 14.7495 42.2112 14.7677 42.3466 14.8152C42.4427 14.8917 42.5149 14.9889 42.5561 15.0974L44.7033 19.9539C44.8247 20.2436 45.0563 20.4866 45.3579 20.6411C45.6594 20.7748 45.9937 20.8398 46.3305 20.8303H50.3556C50.4119 20.83 50.4673 20.8174 50.5169 20.7937C50.5664 20.7699 50.6087 20.7358 50.6399 20.6942C50.6718 20.6522 50.6915 20.6039 50.6974 20.5535C50.7033 20.5031 50.6951 20.4523 50.6736 20.4054L47.5388 13.8393Z" fill="#EC6E44"/>
<path d="M67.1742 20.8336H62.618C62.5693 20.8335 62.5211 20.8243 62.4766 20.8065C62.4322 20.7888 62.3924 20.763 62.3599 20.7307C62.3271 20.6987 62.3024 20.6608 62.2876 20.6195C62.2727 20.5783 62.268 20.5347 62.2738 20.4917L64.1218 6.78188C64.1318 6.70706 64.1723 6.63807 64.2357 6.58793C64.2991 6.53779 64.381 6.50996 64.4659 6.50968H69.0222C69.0699 6.51001 69.1169 6.51903 69.1605 6.53618C69.204 6.55333 69.2432 6.57824 69.2755 6.60937C69.3077 6.64049 69.3325 6.67717 69.3481 6.71713C69.3637 6.75708 69.3699 6.79946 69.3663 6.84164L67.5184 20.5515C67.511 20.6281 67.4716 20.6995 67.4079 20.7517C67.3442 20.8039 67.2609 20.8331 67.1742 20.8336V20.8336Z" fill="black"/>
<path d="M69.4785 4.96274H64.9185C64.8708 4.96295 64.8236 4.95426 64.7799 4.93725C64.7363 4.92023 64.6971 4.89527 64.665 4.86398C64.6329 4.83268 64.6086 4.79575 64.5936 4.75558C64.5787 4.7154 64.5734 4.67289 64.5781 4.63078L65.0457 1.31121C65.0533 1.23899 65.0894 1.17146 65.1475 1.12047C65.2056 1.06948 65.2822 1.03829 65.3636 1.03236H69.9236C69.9713 1.0327 70.0184 1.04172 70.0619 1.05887C70.1055 1.07602 70.1446 1.10093 70.1769 1.13205C70.2092 1.16318 70.2339 1.19986 70.2495 1.23981C70.2651 1.27977 70.2714 1.32215 70.2678 1.36432L69.7964 4.68389C69.7903 4.7566 69.7547 4.82488 69.6962 4.87612C69.6378 4.92737 69.5605 4.95814 69.4785 4.96274V4.96274Z" fill="black"/>
<path d="M47.8641 12.8169C47.9621 12.9151 48.0521 13.0194 48.1334 13.1289C48.2986 13.3565 48.4461 13.5939 48.5748 13.8393L49.02 14.7887C50.8006 14.7887 51.5001 14.7223 51.6385 14.8418C51.7168 14.9164 51.7766 15.0045 51.8144 15.1007L53.9616 19.9573C54.083 20.247 54.3145 20.49 54.6162 20.6444C54.9189 20.7784 55.2544 20.8434 55.5925 20.8336H59.6139C59.6708 20.8338 59.727 20.8215 59.7772 20.7976C59.8275 20.7738 59.8703 20.7393 59.9018 20.6972C59.9333 20.6551 59.9526 20.6067 59.9578 20.5563C59.963 20.506 59.9541 20.4553 59.9318 20.4087L56.827 13.8393C56.6996 13.5933 56.552 13.3558 56.3856 13.1289V13.1289C56.3067 13.0187 56.2179 12.9143 56.12 12.8169C56.5421 12.5548 56.9199 12.2407 57.2422 11.8841L61.5628 7.00762C61.6015 6.96014 61.6254 6.90442 61.6319 6.84612C61.6385 6.78781 61.6275 6.729 61.6002 6.67566C61.5713 6.62435 61.5271 6.58109 61.4723 6.55064C61.4175 6.52018 61.3544 6.50372 61.2897 6.50305H57.1337C56.7877 6.49515 56.4451 6.566 56.1387 6.70886C55.8494 6.85793 55.5954 7.05518 55.3905 7.28979L52.2183 11.1339C52.0912 11.27 52.0724 11.3529 51.8443 11.426C51.56 11.509 51.0737 11.4691 49.2856 11.489L48.9414 11.8774C48.6189 12.2339 48.2411 12.548 47.8192 12.8102" fill="#F9C843"/>
</g>
<defs>
<clipPath id="clip0_11_2297">
<rect width="120" height="20.0857" fill="white" transform="translate(0 0.957153)"/>
</clipPath>
</defs>
</svg>
