<svg width="20" height="21" viewBox="0 0 20 21" fill="none" xmlns="http://www.w3.org/2000/svg">
<path d="M17.3438 2.45312C16.8359 2.02344 14.8047 0.539062 10.3516 0.539062C10.3516 0.539062 5.07812 0.226562 2.5 2.57031C1.05469 4.01562 0.546875 6.08594 0.507812 8.70312C0.46875 11.2812 0.390625 16.1641 5.07812 17.4922V19.4844C5.07812 19.4844 5.03906 20.3047 5.58594 20.5C6.25 20.6953 6.60156 20.0703 7.22656 19.4062C7.57812 19.0156 8.04688 18.5078 8.39844 18.0781C11.6016 18.3516 14.0625 17.7266 14.375 17.6484C15 17.4141 18.6719 16.9453 19.2578 12.1016C19.8828 7.0625 18.9844 3.89844 17.3438 2.45312ZM17.8516 11.7109C17.3828 15.7734 14.375 16.0469 13.8281 16.2422C13.5938 16.2812 11.4453 16.8281 8.71094 16.6719C8.71094 16.6719 6.67969 19.0938 6.05469 19.7578C5.85938 19.9531 5.625 19.9531 5.625 19.5234C5.625 19.25 5.625 16.1641 5.625 16.1641C1.67969 15.0703 1.91406 10.9297 1.95312 8.78125C1.99219 6.59375 2.38281 4.83594 3.59375 3.625C5.78125 1.63281 10.2734 1.94531 10.2734 1.94531C14.0625 1.94531 15.8594 3.11719 16.2891 3.46875C17.6953 4.67969 18.3984 7.53125 17.8516 11.7109ZM12.4219 8.58594C12.3828 7.45312 11.7969 6.82812 10.7031 6.75C10.3516 6.75 10.3125 7.25781 10.6641 7.25781C11.4844 7.33594 11.875 7.72656 11.9531 8.58594C11.9531 8.9375 12.4609 8.89844 12.4219 8.58594ZM13.2422 9.01562C13.2422 9.32812 13.75 9.36719 13.75 9.01562C13.7891 7.14062 12.5781 5.57812 10.3125 5.42188C9.96094 5.38281 9.92188 5.89062 10.2734 5.92969C12.2266 6.04688 13.2812 7.375 13.2422 9.01562ZM15.0781 9.52344C15.0391 6.125 12.7344 4.13281 9.84375 4.09375C9.53125 4.09375 9.53125 4.60156 9.84375 4.60156C12.4219 4.64062 14.5312 6.35938 14.5703 9.52344C14.5703 9.875 15.0781 9.875 15.0781 9.52344ZM14.6094 13.3516C14.8047 13 14.7656 12.6875 14.4922 12.4531C13.9844 11.9844 13.2812 11.4766 12.6953 11.1641C12.2656 10.9297 11.8359 11.0859 11.6406 11.3203L11.2891 11.7891C11.0938 12.0234 10.7422 11.9844 10.7422 11.9844C8.125 11.3203 7.42188 8.70312 7.42188 8.70312C7.42188 8.70312 7.42188 8.35156 7.65625 8.15625L8.125 7.76562C8.35938 7.57031 8.47656 7.14062 8.24219 6.71094C8.125 6.47656 7.85156 6.04688 7.65625 5.8125C7.46094 5.5 6.95312 4.95312 6.95312 4.95312C6.75781 4.64062 6.40625 4.60156 6.05469 4.79688H6.01562C5.27344 5.1875 4.45312 6.00781 4.72656 6.78906C4.72656 6.78906 4.92188 7.49219 5.74219 8.97656C6.13281 9.71875 6.5625 10.3047 6.95312 10.8125C7.38281 11.3594 7.96875 11.9453 8.59375 12.4531C9.84375 13.4297 11.7578 14.4453 12.5781 14.6797H12.6172C13.3984 14.9531 14.2188 14.1328 14.6094 13.3906V13.3516Z" fill="#7D509F"/>
</svg>
